<svg xmlns="http://www.w3.org/2000/svg" xmlns:xlink="http://www.w3.org/1999/xlink" width="2851" height="2251" viewBox="0 0 2851 2251">
<path fill-rule="nonzero" fill="rgb(0%, 0%, 0%)" fill-opacity="1" d="M 0.113281 606.628906 L 0.113281 1212.53125 L 2850.109375 1212.53125 L 2850.109375 1038.941406 L 1140.109375 1038.941406 L 1140.109375 862.011719 L 2850.109375 862.011719 L 2850.109375 698.429688 L 1140.109375 698.429688 L 1140.109375 521.5 L 2850.109375 521.5 L 2850.109375 351.25 L 1140.109375 351.25 L 1140.109375 170.988281 L 2850.109375 170.988281 L 2850.109375 0.730469 L 0.113281 0.730469 Z M 102.3125 79.179688 C 105.429688 97.210938 109.4375 100.878906 126.136719 100.878906 L 138.828125 100.878906 L 128.363281 112.898438 C 122.796875 119.910156 117.453125 128.929688 116.785156 133.269531 C 115.449219 140.609375 117.007812 159.300781 119.679688 169.648438 C 120.570312 172.988281 117.007812 170.988281 109.882812 164.640625 C 96.300781 151.960938 92.515625 151.960938 82.050781 162.640625 C 77.597656 167.308594 73.367188 170.988281 72.699219 170.988281 C 72.03125 170.988281 72.03125 161.640625 72.921875 149.960938 L 74.257812 128.929688 L 63.347656 114.898438 L 52.4375 100.878906 L 64.683594 100.878906 C 77.597656 100.878906 86.949219 94.539062 86.949219 85.53125 C 86.949219 82.859375 88.507812 75.179688 90.289062 68.5 C 92.960938 59.148438 94.296875 57.480469 96.746094 60.488281 C 98.527344 62.488281 100.976562 71.171875 102.3125 79.179688 Z M 482.386719 79.851562 C 484.390625 95.210938 490.625 100.878906 505.542969 100.878906 L 517.789062 100.878906 L 506.878906 114.898438 L 495.96875 128.929688 L 497.304688 149.960938 C 498.195312 161.640625 498.195312 170.988281 497.527344 170.988281 C 496.859375 170.988281 492.628906 167.308594 488.175781 162.640625 C 477.710938 151.960938 473.925781 151.960938 460.34375 164.640625 C 453.21875 170.988281 449.65625 172.988281 450.546875 169.648438 C 453.21875 159.300781 454.777344 140.609375 453.441406 133.269531 C 452.773438 128.929688 447.429688 119.910156 441.863281 112.898438 L 431.398438 100.878906 L 444.089844 100.878906 C 460.566406 100.878906 464.796875 97.210938 467.914062 79.851562 C 471.253906 60.160156 474.371094 55.148438 478.15625 62.828125 C 479.714844 66.160156 481.71875 73.839844 482.386719 79.851562 Z M 672.3125 79.179688 C 675.429688 97.210938 679.4375 100.878906 696.136719 100.878906 L 708.828125 100.878906 L 698.363281 112.898438 C 692.796875 119.910156 687.453125 128.929688 686.785156 133.269531 C 685.449219 140.609375 687.007812 159.300781 689.679688 169.648438 C 690.570312 172.988281 687.007812 170.988281 679.882812 164.640625 C 666.300781 151.960938 662.515625 151.960938 652.050781 162.640625 C 647.597656 167.308594 643.367188 170.988281 642.699219 170.988281 C 642.03125 170.988281 642.03125 161.640625 642.921875 149.960938 L 644.257812 128.929688 L 633.347656 114.898438 L 622.4375 100.878906 L 634.683594 100.878906 C 647.597656 100.878906 656.949219 94.539062 656.949219 85.53125 C 656.949219 82.859375 658.507812 75.179688 660.289062 68.5 C 662.960938 59.148438 664.296875 57.480469 666.746094 60.488281 C 668.527344 62.488281 670.976562 71.171875 672.3125 79.179688 Z M 1052.390625 79.851562 C 1054.390625 95.210938 1060.628906 100.878906 1075.539062 100.878906 L 1087.789062 100.878906 L 1076.878906 114.898438 L 1065.96875 128.929688 L 1067.308594 149.960938 C 1068.191406 161.640625 1068.191406 170.988281 1067.53125 170.988281 C 1066.859375 170.988281 1062.628906 167.308594 1058.179688 162.640625 C 1047.710938 151.960938 1043.929688 151.960938 1030.339844 164.640625 C 1023.21875 170.988281 1019.660156 172.988281 1020.550781 169.648438 C 1023.21875 159.300781 1024.78125 140.609375 1023.441406 133.269531 C 1022.769531 128.929688 1017.429688 119.910156 1011.859375 112.898438 L 1001.398438 100.878906 L 1014.089844 100.878906 C 1030.570312 100.878906 1034.800781 97.210938 1037.910156 79.851562 C 1041.25 60.160156 1044.371094 55.148438 1048.160156 62.828125 C 1049.710938 66.160156 1051.71875 73.839844 1052.390625 79.851562 Z M 292.238281 78.851562 C 294.242188 87.859375 296.46875 95.871094 297.359375 96.871094 C 298.027344 97.878906 304.929688 99.550781 312.722656 100.210938 L 326.972656 101.550781 L 315.839844 117.570312 C 303.816406 134.929688 303.816406 135.269531 308.9375 166.980469 C 310.050781 174.660156 309.828125 174.320312 299.363281 164.640625 C 293.574219 158.96875 287.117188 154.300781 285.113281 154.300781 C 283.109375 154.300781 276.652344 158.96875 270.863281 164.640625 C 260.398438 174.320312 260.175781 174.660156 261.289062 166.980469 C 266.410156 134.929688 266.410156 134.929688 254.164062 117.238281 L 242.808594 100.878906 L 253.496094 100.878906 C 269.082031 100.878906 273.3125 98.210938 276.207031 86.53125 C 281.996094 63.160156 283.109375 60.488281 285.558594 61.488281 C 287.117188 62.488281 290.011719 70.171875 292.238281 78.851562 Z M 862.238281 78.851562 C 864.242188 87.859375 866.46875 95.871094 867.359375 96.871094 C 868.027344 97.878906 874.929688 99.550781 882.722656 100.210938 L 896.972656 101.550781 L 885.839844 117.570312 C 873.816406 134.929688 873.816406 135.269531 878.9375 166.980469 C 880.050781 174.660156 879.828125 174.320312 869.363281 164.640625 C 863.574219 158.96875 857.117188 154.300781 855.113281 154.300781 C 853.109375 154.300781 846.652344 158.96875 840.863281 164.640625 C 830.398438 174.320312 830.175781 174.660156 831.289062 166.980469 C 836.410156 134.929688 836.410156 134.929688 824.164062 117.238281 L 812.808594 100.878906 L 823.496094 100.878906 C 839.082031 100.878906 843.3125 98.210938 846.207031 86.53125 C 851.996094 63.160156 853.109375 60.488281 855.558594 61.488281 C 857.117188 62.488281 860.011719 70.171875 862.238281 78.851562 Z M 196.273438 199.359375 C 199.390625 217.390625 203.398438 221.058594 220.097656 221.058594 L 234.570312 221.058594 L 225.886719 231.410156 C 213.195312 246.101562 211.636719 250.441406 211.636719 271.800781 C 211.636719 282.480469 210.746094 291.160156 209.632812 291.160156 C 208.519531 291.160156 204.511719 287.488281 200.949219 282.820312 C 197.164062 278.140625 192.710938 274.46875 190.484375 274.46875 C 188.480469 274.46875 183.582031 278.140625 179.574219 282.820312 C 168.441406 295.5 166.882812 294.171875 168.441406 271.800781 L 169.777344 252.441406 L 146.621094 221.058594 L 161.09375 221.058594 C 177.570312 221.058594 181.355469 217.390625 183.804688 200.359375 C 184.695312 194.359375 186.476562 186.679688 187.589844 183 C 190.484375 175.328125 192.710938 179.671875 196.273438 199.359375 Z M 386.199219 199.03125 C 388.203125 209.039062 391.320312 218.058594 393.324219 219.058594 C 395.328125 220.058594 402.898438 221.058594 410.246094 221.058594 L 423.605469 221.058594 L 400.449219 252.441406 L 401.785156 271.800781 C 403.34375 294.171875 401.785156 295.5 390.652344 282.820312 C 386.644531 278.140625 381.746094 274.46875 379.742188 274.46875 C 377.515625 274.46875 373.0625 278.140625 369.277344 282.820312 C 365.714844 287.488281 361.707031 291.160156 360.59375 291.160156 C 359.480469 291.160156 358.589844 282.480469 358.589844 271.800781 C 358.589844 250.441406 357.03125 246.101562 344.339844 231.410156 L 335.65625 221.058594 L 349.460938 221.058594 C 365.9375 221.058594 370.835938 217.71875 372.839844 205.371094 C 375.289062 189.679688 379.074219 177.660156 381.078125 179.328125 C 381.96875 180.328125 384.417969 189.351562 386.199219 199.03125 Z M 766.273438 199.359375 C 769.390625 217.390625 773.398438 221.058594 790.097656 221.058594 L 804.570312 221.058594 L 795.886719 231.410156 C 783.195312 246.101562 781.636719 250.441406 781.636719 271.800781 C 781.636719 282.480469 780.746094 291.160156 779.632812 291.160156 C 778.519531 291.160156 774.511719 287.488281 770.949219 282.820312 C 767.164062 278.140625 762.710938 274.46875 760.484375 274.46875 C 758.480469 274.46875 753.582031 278.140625 749.574219 282.820312 C 738.441406 295.5 736.882812 294.171875 738.441406 271.800781 L 739.777344 252.441406 L 716.621094 221.058594 L 731.09375 221.058594 C 747.570312 221.058594 751.355469 217.390625 753.804688 200.359375 C 754.695312 194.359375 756.476562 186.679688 757.589844 183 C 760.484375 175.328125 762.710938 179.671875 766.273438 199.359375 Z M 956.199219 199.03125 C 958.203125 209.039062 961.320312 218.058594 963.324219 219.058594 C 965.328125 220.058594 972.898438 221.058594 980.246094 221.058594 L 993.605469 221.058594 L 970.449219 252.441406 L 971.785156 271.800781 C 973.34375 294.171875 971.785156 295.5 960.652344 282.820312 C 956.644531 278.140625 951.746094 274.46875 949.742188 274.46875 C 947.515625 274.46875 943.0625 278.140625 939.277344 282.820312 C 935.714844 287.488281 931.707031 291.160156 930.59375 291.160156 C 929.480469 291.160156 928.589844 282.480469 928.589844 271.800781 C 928.589844 250.441406 927.03125 246.101562 914.339844 231.410156 L 905.65625 221.058594 L 919.460938 221.058594 C 935.9375 221.058594 940.835938 217.71875 942.839844 205.371094 C 945.289062 189.679688 949.074219 177.660156 951.078125 179.328125 C 951.96875 180.328125 954.417969 189.351562 956.199219 199.03125 Z M 576.125 198.03125 C 579.910156 217.058594 583.917969 221.058594 599.726562 221.058594 L 612.863281 221.058594 L 601.507812 237.089844 L 589.929688 253.441406 L 591.488281 272.140625 C 593.269531 294.171875 591.488281 295.5 580.355469 282.820312 C 576.347656 278.140625 571.671875 274.46875 570.113281 274.46875 C 568.554688 274.46875 563.878906 278.140625 559.871094 282.820312 C 548.738281 295.5 546.957031 294.171875 548.738281 272.140625 L 550.296875 253.441406 L 538.71875 237.089844 L 527.363281 221.058594 L 540.945312 221.058594 C 554.972656 221.058594 563.433594 214.378906 563.433594 203.03125 C 563.433594 193.691406 567.886719 180.328125 570.558594 181.671875 C 572.117188 182.671875 574.566406 189.679688 576.125 198.03125 Z M 100.308594 313.53125 C 105.652344 338.570312 107.878906 341.238281 122.574219 341.238281 C 129.921875 341.238281 135.933594 342.238281 135.933594 343.238281 C 135.933594 344.578125 131.480469 351.25 125.914062 358.601562 C 114.78125 373.28125 113.667969 380.960938 119.234375 404.328125 C 121.015625 411.679688 121.90625 418.019531 121.238281 418.019531 C 120.570312 418.019531 114.335938 412.011719 107.65625 404.671875 L 95.1875 391.308594 L 80.714844 407 C 70.472656 417.679688 66.6875 420.691406 67.800781 416.019531 C 73.367188 396.320312 75.59375 380.300781 73.589844 374.960938 C 72.476562 371.621094 67.578125 363.609375 62.679688 356.929688 C 57.558594 350.25 53.550781 343.910156 53.550781 342.910156 C 53.550781 341.910156 59.5625 341.238281 66.6875 341.238281 C 79.378906 341.238281 86.949219 336.230469 86.949219 327.550781 C 86.949219 321.210938 93.40625 301.179688 95.632812 301.179688 C 96.746094 301.179688 98.972656 306.859375 100.308594 313.53125 Z M 291.570312 318.199219 C 296.914062 340.910156 297.359375 341.238281 313.613281 341.238281 L 328.53125 341.238281 L 316.953125 357.601562 C 304.261719 375.289062 303.371094 379.628906 308.492188 401.328125 C 310.273438 409.339844 311.386719 416.351562 310.941406 417.019531 C 310.496094 418.019531 304.261719 412.339844 297.582031 405 L 285.113281 390.980469 L 272.644531 405 C 265.964844 412.339844 259.730469 418.019531 259.285156 417.019531 C 258.839844 416.351562 259.953125 409.339844 261.734375 401.328125 C 266.855469 379.628906 265.964844 375.289062 253.496094 357.601562 L 241.695312 341.238281 L 256.390625 341.238281 C 272.644531 341.238281 274.203125 339.898438 278.433594 319.539062 C 279.992188 312.191406 281.773438 304.851562 282.21875 303.519531 C 284.445312 297.839844 288.230469 303.851562 291.570312 318.199219 Z M 481.71875 319.871094 C 483.945312 328.890625 487.0625 337.230469 488.398438 338.570312 C 489.957031 339.898438 496.859375 341.238281 503.984375 341.238281 C 510.886719 341.238281 516.675781 341.910156 516.675781 342.910156 C 516.675781 343.910156 512.667969 350.25 507.546875 356.929688 C 502.648438 363.609375 497.75 371.621094 496.636719 374.960938 C 494.632812 380.300781 496.859375 396.320312 502.425781 416.019531 C 503.539062 420.691406 499.753906 417.679688 489.511719 407 L 475.039062 391.308594 L 462.570312 404.671875 C 455.890625 412.011719 449.65625 418.019531 448.988281 418.019531 C 448.320312 418.019531 449.210938 411.679688 450.992188 404.328125 C 456.558594 380.960938 455.445312 373.28125 444.3125 358.601562 C 438.746094 351.25 434.292969 344.578125 434.292969 343.238281 C 434.292969 342.238281 440.304688 341.238281 447.652344 341.238281 C 462.347656 341.238281 464.574219 338.570312 469.917969 313.53125 C 471.253906 306.519531 473.703125 301.511719 475.039062 302.179688 C 476.597656 302.851562 479.492188 310.859375 481.71875 319.871094 Z M 670.308594 313.53125 C 675.652344 338.570312 677.878906 341.238281 692.574219 341.238281 C 699.921875 341.238281 705.933594 342.238281 705.933594 343.238281 C 705.933594 344.578125 701.480469 351.25 695.914062 358.601562 C 684.78125 373.28125 683.667969 380.960938 689.234375 404.328125 C 691.015625 411.679688 691.90625 418.019531 691.238281 418.019531 C 690.570312 418.019531 684.335938 412.011719 677.65625 404.671875 L 665.1875 391.308594 L 650.714844 407 C 640.472656 417.679688 636.6875 420.691406 637.800781 416.019531 C 643.367188 396.320312 645.59375 380.300781 643.589844 374.960938 C 642.476562 371.621094 637.578125 363.609375 632.679688 356.929688 C 627.558594 350.25 623.550781 343.910156 623.550781 342.910156 C 623.550781 341.910156 629.5625 341.238281 636.6875 341.238281 C 649.378906 341.238281 656.949219 336.230469 656.949219 327.550781 C 656.949219 321.210938 663.40625 301.179688 665.632812 301.179688 C 666.746094 301.179688 668.972656 306.859375 670.308594 313.53125 Z M 861.570312 318.199219 C 866.914062 340.910156 867.359375 341.238281 883.613281 341.238281 L 898.53125 341.238281 L 886.953125 357.601562 C 874.261719 375.289062 873.371094 379.628906 878.492188 401.328125 C 880.273438 409.339844 881.386719 416.351562 880.941406 417.019531 C 880.496094 418.019531 874.261719 412.339844 867.582031 405 L 855.113281 390.980469 L 842.644531 405 C 835.964844 412.339844 829.730469 418.019531 829.285156 417.019531 C 828.839844 416.351562 829.953125 409.339844 831.734375 401.328125 C 836.855469 379.628906 835.964844 375.289062 823.496094 357.601562 L 811.695312 341.238281 L 826.390625 341.238281 C 842.644531 341.238281 844.203125 339.898438 848.433594 319.539062 C 849.992188 312.191406 851.773438 304.851562 852.21875 303.519531 C 854.445312 297.839844 858.230469 303.851562 861.570312 318.199219 Z M 1051.71875 319.871094 C 1053.941406 328.890625 1057.058594 337.230469 1058.398438 338.570312 C 1059.960938 339.898438 1066.859375 341.238281 1073.980469 341.238281 C 1080.890625 341.238281 1086.679688 341.910156 1086.679688 342.910156 C 1086.679688 343.910156 1082.671875 350.25 1077.550781 356.929688 C 1072.648438 363.609375 1067.75 371.621094 1066.640625 374.960938 C 1064.628906 380.300781 1066.859375 396.320312 1072.429688 416.019531 C 1073.539062 420.691406 1069.75 417.679688 1059.511719 407 L 1045.039062 391.308594 L 1032.570312 404.671875 C 1025.890625 412.011719 1019.660156 418.019531 1018.988281 418.019531 C 1018.320312 418.019531 1019.210938 411.679688 1020.988281 404.328125 C 1026.558594 380.960938 1025.441406 373.28125 1014.308594 358.601562 C 1008.75 351.25 1004.289062 344.578125 1004.289062 343.238281 C 1004.289062 342.238281 1010.308594 341.238281 1017.648438 341.238281 C 1032.351562 341.238281 1034.570312 338.570312 1039.921875 313.53125 C 1041.25 306.519531 1043.699219 301.511719 1045.039062 302.179688 C 1046.601562 302.851562 1049.488281 310.859375 1051.71875 319.871094 Z M 196.71875 440.71875 C 200.28125 459.410156 205.847656 464.75 221.433594 464.75 L 232.566406 464.75 L 223.214844 476.769531 C 210.078125 493.460938 209.1875 497.46875 212.75 518.5 C 214.53125 528.519531 216.089844 536.859375 216.089844 537.191406 C 216.089844 540.871094 210.746094 536.53125 202.507812 526.511719 C 197.164062 520.171875 191.597656 514.828125 190.261719 514.828125 C 188.925781 514.828125 183.136719 520.171875 177.347656 526.851562 C 171.78125 533.859375 166.4375 538.191406 165.769531 537.191406 C 165.101562 536.191406 165.546875 529.851562 166.882812 522.511719 C 171.113281 500.140625 170 494.800781 158.867188 479.109375 L 148.179688 464.75 L 158.644531 464.75 C 174.675781 464.75 179.128906 460.75 182.46875 444.058594 C 187.8125 417.019531 192.042969 416.019531 196.71875 440.71875 Z M 387.535156 443.390625 C 390.875 460.75 395.328125 464.75 411.582031 464.75 L 422.046875 464.75 L 411.359375 479.109375 C 400.226562 494.800781 399.113281 500.140625 403.34375 522.511719 C 404.679688 529.851562 405.125 536.191406 404.457031 537.191406 C 403.789062 538.191406 398.445312 533.859375 392.878906 526.851562 C 387.089844 520.171875 381.300781 514.828125 379.964844 514.828125 C 378.628906 514.828125 373.0625 520.171875 367.71875 526.511719 C 359.480469 536.53125 354.136719 540.871094 354.136719 537.191406 C 354.136719 536.859375 355.695312 528.519531 357.476562 518.5 C 361.039062 497.46875 360.148438 493.460938 347.011719 476.769531 L 337.660156 464.75 L 348.792969 464.75 C 363.933594 464.75 369.945312 459.078125 373.0625 442.71875 C 374.621094 435.039062 376.402344 427.371094 377.292969 425.03125 C 379.964844 418.691406 384.417969 426.359375 387.535156 443.390625 Z M 576.792969 440.050781 C 581.023438 459.078125 586.589844 464.75 601.730469 464.75 L 612.195312 464.75 L 600.617188 481.109375 L 589.261719 497.46875 L 592.378906 516.160156 C 593.9375 526.511719 594.605469 535.859375 593.9375 536.859375 C 593.046875 538.191406 588.148438 533.519531 582.582031 526.851562 C 577.238281 520.171875 571.449219 514.828125 570.113281 514.828125 C 568.777344 514.828125 562.988281 520.171875 557.644531 526.851562 C 552.078125 533.519531 547.179688 538.191406 546.289062 536.859375 C 545.621094 535.859375 546.289062 526.511719 547.847656 516.160156 L 550.964844 497.46875 L 539.609375 481.109375 L 528.03125 464.75 L 538.496094 464.75 C 552.746094 464.75 559.203125 459.078125 562.765625 443.058594 C 564.324219 435.710938 566.105469 427.699219 566.773438 425.359375 C 568.777344 417.019531 573.230469 423.359375 576.792969 440.050781 Z M 766.71875 440.71875 C 770.28125 459.410156 775.847656 464.75 791.433594 464.75 L 802.566406 464.75 L 793.214844 476.769531 C 780.078125 493.460938 779.1875 497.46875 782.75 518.5 C 784.53125 528.519531 786.089844 536.859375 786.089844 537.191406 C 786.089844 540.871094 780.746094 536.53125 772.507812 526.511719 C 767.164062 520.171875 761.597656 514.828125 760.261719 514.828125 C 758.925781 514.828125 753.136719 520.171875 747.347656 526.851562 C 741.78125 533.859375 736.4375 538.191406 735.769531 537.191406 C 735.101562 536.191406 735.546875 529.851562 736.882812 522.511719 C 741.113281 500.140625 740 494.800781 728.867188 479.109375 L 718.179688 464.75 L 728.644531 464.75 C 744.675781 464.75 749.128906 460.75 752.46875 444.058594 C 757.8125 417.019531 762.042969 416.019531 766.71875 440.71875 Z M 957.535156 443.390625 C 960.875 460.75 965.328125 464.75 981.582031 464.75 L 992.046875 464.75 L 981.359375 479.109375 C 970.226562 494.800781 969.113281 500.140625 973.34375 522.511719 C 974.679688 529.851562 975.125 536.191406 974.457031 537.191406 C 973.789062 538.191406 968.445312 533.859375 962.878906 526.851562 C 957.089844 520.171875 951.300781 514.828125 949.964844 514.828125 C 948.628906 514.828125 943.0625 520.171875 937.71875 526.511719 C 929.480469 536.53125 924.136719 540.871094 924.136719 537.191406 C 924.136719 536.859375 925.695312 528.519531 927.476562 518.5 C 931.039062 497.46875 930.148438 493.460938 917.011719 476.769531 L 907.660156 464.75 L 918.792969 464.75 C 933.933594 464.75 939.945312 459.078125 943.0625 442.71875 C 944.621094 435.039062 946.402344 427.371094 947.292969 425.03125 C 949.964844 418.691406 954.417969 426.359375 957.535156 443.390625 Z M 102.3125 563.230469 C 105.429688 581.261719 109.4375 584.929688 126.136719 584.929688 L 138.828125 584.929688 L 128.585938 596.949219 C 116.5625 610.96875 115.003906 616.308594 117.007812 638.679688 C 118.789062 658.039062 117.230469 659.039062 104.539062 645.019531 C 94.964844 634.671875 94.519531 634.671875 83.386719 647.359375 C 79.601562 651.699219 75.816406 655.03125 75.148438 655.03125 C 74.257812 655.03125 73.589844 645.359375 73.589844 633.671875 C 73.589844 612.308594 73.589844 612.308594 63.125 598.621094 L 52.4375 585.269531 L 64.683594 584.929688 C 77.597656 584.929688 86.949219 578.589844 86.949219 569.578125 C 86.949219 566.910156 88.507812 559.230469 90.289062 552.550781 C 92.960938 543.199219 94.296875 541.53125 96.746094 544.539062 C 98.527344 546.539062 100.976562 555.21875 102.3125 563.230469 Z M 289.34375 551.550781 C 290.679688 556.890625 292.90625 565.910156 294.242188 571.25 C 296.914062 582.261719 301.367188 584.929688 316.730469 584.929688 L 327.417969 584.929688 L 316.285156 600.960938 L 304.929688 617.308594 L 306.488281 636.011719 C 307.378906 647.359375 307.15625 655.03125 305.820312 655.03125 C 304.707031 655.03125 299.585938 650.359375 294.464844 644.691406 L 285.113281 634.339844 L 275.761719 644.691406 C 270.640625 650.359375 265.519531 655.03125 264.40625 655.03125 C 263.070312 655.03125 262.847656 647.359375 263.738281 636.011719 L 265.296875 617.308594 L 253.941406 600.960938 L 242.808594 584.929688 L 253.496094 584.929688 C 268.859375 584.929688 273.3125 582.261719 275.984375 571.25 C 277.320312 565.910156 279.546875 556.890625 280.882812 551.550781 C 282.21875 545.871094 284.222656 541.53125 285.113281 541.53125 C 286.003906 541.53125 288.007812 545.871094 289.34375 551.550781 Z M 482.386719 563.898438 C 484.390625 578.929688 490.625 584.929688 505.542969 584.929688 L 517.789062 585.269531 L 507.324219 598.621094 C 496.636719 612.308594 496.636719 612.308594 496.636719 633.671875 C 496.636719 645.359375 495.96875 655.03125 495.078125 655.03125 C 494.410156 655.03125 490.625 651.699219 486.839844 647.359375 C 475.707031 634.671875 475.261719 634.671875 465.6875 645.019531 C 452.996094 659.039062 451.4375 658.039062 453.21875 638.679688 C 455.222656 616.308594 453.664062 610.96875 441.640625 596.949219 L 431.398438 584.929688 L 444.089844 584.929688 C 460.566406 584.929688 464.796875 581.261719 467.914062 563.898438 C 471.253906 544.210938 474.371094 539.199219 478.15625 546.871094 C 479.714844 550.210938 481.71875 557.890625 482.386719 563.898438 Z M 672.3125 563.230469 C 675.429688 581.261719 679.4375 584.929688 696.136719 584.929688 L 708.828125 584.929688 L 698.585938 596.949219 C 686.5625 610.96875 685.003906 616.308594 687.007812 638.679688 C 688.789062 658.039062 687.230469 659.039062 674.539062 645.019531 C 664.964844 634.671875 664.519531 634.671875 653.386719 647.359375 C 649.601562 651.699219 645.816406 655.03125 645.148438 655.03125 C 644.257812 655.03125 643.589844 645.359375 643.589844 633.671875 C 643.589844 612.308594 643.589844 612.308594 633.125 598.621094 L 622.4375 585.269531 L 634.683594 584.929688 C 647.597656 584.929688 656.949219 578.589844 656.949219 569.578125 C 656.949219 566.910156 658.507812 559.230469 660.289062 552.550781 C 662.960938 543.199219 664.296875 541.53125 666.746094 544.539062 C 668.527344 546.539062 670.976562 555.21875 672.3125 563.230469 Z M 859.34375 551.550781 C 860.679688 556.890625 862.90625 565.910156 864.242188 571.25 C 866.914062 582.261719 871.367188 584.929688 886.730469 584.929688 L 897.417969 584.929688 L 886.285156 600.960938 L 874.929688 617.308594 L 876.488281 636.011719 C 877.378906 647.359375 877.15625 655.03125 875.820312 655.03125 C 874.707031 655.03125 869.585938 650.359375 864.464844 644.691406 L 855.113281 634.339844 L 845.761719 644.691406 C 840.640625 650.359375 835.519531 655.03125 834.40625 655.03125 C 833.070312 655.03125 832.847656 647.359375 833.738281 636.011719 L 835.296875 617.308594 L 823.941406 600.960938 L 812.808594 584.929688 L 823.496094 584.929688 C 838.859375 584.929688 843.3125 582.261719 845.984375 571.25 C 847.320312 565.910156 849.546875 556.890625 850.882812 551.550781 C 852.21875 545.871094 854.222656 541.53125 855.113281 541.53125 C 856.003906 541.53125 858.007812 545.871094 859.34375 551.550781 Z M 1052.390625 563.898438 C 1054.390625 578.929688 1060.628906 584.929688 1075.539062 584.929688 L 1087.789062 585.269531 L 1077.320312 598.621094 C 1066.640625 612.308594 1066.640625 612.308594 1066.640625 633.671875 C 1066.640625 645.359375 1065.96875 655.03125 1065.078125 655.03125 C 1064.410156 655.03125 1060.628906 651.699219 1056.839844 647.359375 C 1045.710938 634.671875 1045.261719 634.671875 1035.691406 645.019531 C 1023 659.039062 1021.441406 658.039062 1023.21875 638.679688 C 1025.21875 616.308594 1023.660156 610.96875 1011.640625 596.949219 L 1001.398438 584.929688 L 1014.089844 584.929688 C 1030.570312 584.929688 1034.800781 581.261719 1037.910156 563.898438 C 1041.25 544.210938 1044.371094 539.199219 1048.160156 546.871094 C 1049.710938 550.210938 1051.71875 557.890625 1052.390625 563.898438 Z M 196.050781 680.410156 C 200.28125 702.441406 202.953125 705.109375 220.097656 705.109375 L 235.015625 705.109375 L 224.328125 718.800781 C 209.855469 737.488281 208.742188 741.160156 212.75 760.859375 C 216.757812 780.21875 216.757812 778.558594 213.195312 778.558594 C 211.636719 778.558594 206.960938 774.210938 202.730469 768.539062 C 192.933594 756.191406 188.703125 756.191406 178.238281 768.539062 C 167.996094 780.558594 163.765625 781.558594 165.769531 770.871094 C 166.4375 766.871094 167.773438 757.519531 168.664062 750.511719 C 170 737.828125 169.554688 736.820312 157.976562 721.46875 L 145.953125 705.441406 L 160.871094 705.109375 C 177.570312 705.109375 179.574219 702.769531 184.917969 677.398438 C 188.480469 660.710938 192.710938 661.710938 196.050781 680.410156 Z M 385.308594 677.398438 C 390.652344 702.769531 392.65625 705.109375 409.355469 705.109375 L 424.273438 705.109375 L 412.25 721.140625 L 400.226562 737.160156 L 401.5625 756.191406 C 403.34375 778.21875 401.785156 779.558594 390.652344 766.871094 C 386.644531 762.191406 381.96875 758.519531 380.410156 758.519531 C 378.628906 758.519531 373.953125 762.191406 369.722656 766.871094 C 365.492188 771.539062 361.261719 775.210938 360.371094 775.210938 C 359.480469 775.210938 358.589844 766.199219 358.589844 755.179688 C 358.589844 733.820312 358.8125 734.148438 340.777344 712.121094 L 335.210938 705.441406 L 350.128906 705.109375 C 367.273438 705.109375 369.945312 702.441406 374.175781 680.410156 C 377.515625 661.710938 381.746094 660.710938 385.308594 677.398438 Z M 576.570312 682.410156 C 578.574219 691.089844 581.023438 699.101562 581.914062 700.769531 C 583.027344 702.109375 590.820312 704.109375 599.28125 705.109375 L 614.867188 706.78125 L 603.511719 720.128906 C 597.5 727.480469 591.710938 735.820312 591.265625 738.828125 C 590.597656 742.171875 591.042969 751.511719 592.601562 759.859375 C 595.71875 778.890625 594.160156 781.890625 586.144531 772.539062 C 575.457031 759.519531 570.78125 756.859375 565.214844 761.191406 C 562.320312 763.53125 557.421875 768.539062 554.082031 772.539062 C 546.066406 781.890625 544.507812 778.890625 547.625 759.859375 C 549.183594 751.511719 549.628906 742.171875 548.960938 738.828125 C 548.515625 735.820312 542.726562 727.480469 536.714844 720.128906 L 525.359375 706.78125 L 540.5 705.109375 C 557.867188 703.109375 560.09375 701.441406 562.097656 690.421875 C 566.996094 660.710938 571.226562 658.710938 576.570312 682.410156 Z M 766.050781 680.410156 C 770.28125 702.441406 772.953125 705.109375 790.097656 705.109375 L 805.015625 705.441406 L 799.449219 712.121094 C 781.414062 734.148438 781.636719 733.820312 781.636719 755.179688 C 781.636719 766.199219 780.746094 775.210938 779.855469 775.210938 C 778.964844 775.210938 774.734375 771.539062 770.503906 766.871094 C 766.273438 762.191406 761.597656 758.519531 759.816406 758.519531 C 758.257812 758.519531 753.582031 762.191406 749.574219 766.871094 C 738.441406 779.558594 736.882812 778.21875 738.664062 756.191406 L 740 737.160156 L 727.976562 721.140625 L 715.953125 705.109375 L 730.871094 705.109375 C 747.570312 705.109375 749.574219 702.769531 754.917969 677.398438 C 758.480469 660.710938 762.710938 661.710938 766.050781 680.410156 Z M 955.308594 677.398438 C 960.652344 702.769531 962.65625 705.109375 979.355469 705.109375 L 994.273438 705.441406 L 982.25 721.46875 C 970.671875 736.820312 970.226562 737.828125 971.5625 750.511719 C 972.453125 757.519531 973.789062 766.871094 974.457031 770.871094 C 976.460938 781.558594 972.230469 780.558594 961.988281 768.539062 C 951.523438 756.191406 947.292969 756.191406 937.496094 768.539062 C 933.265625 774.210938 928.589844 778.558594 927.03125 778.558594 C 923.46875 778.558594 923.46875 780.21875 927.476562 760.859375 C 931.484375 741.160156 930.371094 737.488281 915.898438 718.800781 L 905.210938 705.109375 L 920.128906 705.109375 C 937.273438 705.109375 939.945312 702.441406 944.175781 680.410156 C 947.515625 661.710938 951.746094 660.710938 955.308594 677.398438 Z M 100.308594 797.578125 C 105.652344 822.949219 107.65625 825.289062 123.6875 825.289062 C 131.703125 825.289062 138.160156 826.289062 138.160156 827.621094 C 137.9375 829.300781 133.039062 835.96875 127.027344 842.980469 C 115.003906 856.671875 113.445312 864.011719 118.34375 884.710938 C 122.351562 902.070312 119.679688 903.738281 108.546875 890.71875 C 102.757812 884.039062 96.746094 878.699219 94.964844 878.699219 C 93.40625 878.699219 87.617188 884.039062 82.273438 890.390625 C 72.03125 902.398438 67.578125 901.730469 70.917969 888.378906 C 77.152344 863.339844 76.929688 862.339844 63.125 843.320312 L 50.210938 825.289062 L 66.464844 825.289062 C 84.277344 825.289062 82.273438 827.621094 90.066406 797.578125 C 91.847656 790.910156 94.296875 785.230469 95.632812 785.230469 C 96.746094 785.230469 98.972656 790.910156 100.308594 797.578125 Z M 291.570312 802.25 C 296.914062 824.960938 297.136719 825.289062 314.726562 825.289062 L 330.757812 825.289062 L 318.734375 840.980469 L 306.933594 856.671875 L 308.492188 879.699219 C 310.050781 905.070312 310.496094 905.070312 296.023438 888.050781 C 291.570312 883.039062 286.671875 878.699219 285.113281 878.699219 C 283.777344 878.699219 277.988281 884.039062 272.421875 890.390625 C 266.855469 896.730469 261.734375 901.398438 261.066406 900.398438 C 260.398438 899.398438 261.289062 890.390625 262.847656 879.699219 L 265.964844 861.011719 L 252.828125 842.980469 L 239.914062 825.289062 L 255.5 825.289062 C 272.867188 825.289062 274.203125 823.949219 278.433594 803.589844 C 279.992188 796.25 281.773438 788.898438 282.21875 787.570312 C 284.445312 781.890625 288.230469 787.898438 291.570312 802.25 Z M 482.164062 805.589844 L 486.839844 823.621094 L 503.316406 825.289062 L 520.015625 826.960938 L 509.328125 839.980469 C 494.855469 857.671875 493.742188 861.339844 497.75 880.699219 C 499.53125 889.71875 500.199219 898.058594 499.308594 899.398438 C 498.417969 900.730469 493.296875 896.730469 487.953125 890.390625 C 482.609375 884.039062 476.820312 878.699219 475.261719 878.699219 C 473.480469 878.699219 467.46875 884.039062 461.902344 890.390625 C 456.113281 897.058594 450.992188 901.730469 450.546875 900.730469 C 449.878906 900.070312 450.546875 891.058594 452.105469 881.039062 C 455 859.671875 453.886719 855.671875 440.75 840.308594 C 436.074219 834.640625 432.289062 829.300781 432.066406 827.621094 C 432.066406 826.289062 438.523438 825.289062 446.539062 825.289062 C 462.570312 825.289062 464.574219 822.949219 469.917969 797.578125 C 471.253906 790.570312 473.703125 785.558594 475.039062 786.230469 C 476.375 786.898438 479.714844 795.578125 482.164062 805.589844 Z M 670.308594 797.578125 C 675.652344 822.949219 677.65625 825.289062 693.6875 825.289062 C 701.703125 825.289062 708.160156 826.289062 708.160156 827.621094 C 707.9375 829.300781 704.152344 834.640625 699.476562 840.308594 C 686.339844 855.671875 685.226562 859.671875 688.121094 881.039062 C 689.679688 891.058594 690.347656 900.070312 689.679688 900.730469 C 689.234375 901.730469 684.113281 897.058594 678.324219 890.390625 C 672.757812 884.039062 666.746094 878.699219 664.964844 878.699219 C 663.40625 878.699219 657.617188 884.039062 652.273438 890.390625 C 642.03125 902.398438 637.578125 901.730469 640.917969 888.378906 C 647.152344 863.339844 646.929688 862.339844 633.125 843.320312 L 620.210938 825.289062 L 636.464844 825.289062 C 654.277344 825.289062 652.273438 827.621094 660.066406 797.578125 C 661.847656 790.910156 664.296875 785.230469 665.632812 785.230469 C 666.746094 785.230469 668.972656 790.910156 670.308594 797.578125 Z M 861.570312 802.25 C 866.914062 824.960938 867.136719 825.289062 884.503906 825.289062 L 900.3125 825.289062 L 887.398438 842.980469 L 874.261719 861.011719 L 877.378906 879.699219 C 878.9375 890.390625 879.828125 899.398438 879.160156 900.398438 C 878.492188 901.398438 873.371094 896.730469 867.804688 890.390625 C 862.238281 884.039062 856.449219 878.699219 855.113281 878.699219 C 853.554688 878.699219 848.65625 883.039062 844.203125 888.050781 C 829.730469 905.070312 830.175781 905.070312 831.734375 879.699219 L 833.292969 856.671875 L 821.492188 840.980469 L 809.46875 825.289062 L 825.277344 825.289062 C 842.867188 825.289062 844.203125 823.949219 848.433594 803.589844 C 849.992188 796.25 851.773438 788.898438 852.21875 787.570312 C 854.445312 781.890625 858.230469 787.898438 861.570312 802.25 Z M 1052.160156 805.589844 L 1056.839844 823.621094 L 1073.320312 825.289062 L 1090.019531 826.960938 L 1079.328125 839.980469 C 1064.859375 857.671875 1063.738281 861.339844 1067.75 880.699219 C 1069.53125 889.71875 1070.199219 898.058594 1069.308594 899.398438 C 1068.421875 900.730469 1063.300781 896.730469 1057.949219 890.390625 C 1052.609375 884.039062 1046.820312 878.699219 1045.261719 878.699219 C 1043.480469 878.699219 1037.46875 884.039062 1031.679688 890.71875 C 1020.550781 903.738281 1017.878906 902.070312 1021.878906 884.710938 C 1026.78125 864.011719 1025.21875 856.671875 1013.199219 842.980469 C 1007.191406 835.96875 1002.289062 829.300781 1002.070312 827.621094 C 1002.070312 826.289062 1008.519531 825.289062 1016.539062 825.289062 C 1032.570312 825.289062 1034.570312 822.949219 1039.921875 797.578125 C 1041.25 790.570312 1043.699219 785.558594 1045.039062 786.230469 C 1046.378906 786.898438 1049.710938 795.578125 1052.160156 805.589844 Z M 196.273438 924.101562 C 200.726562 943.800781 206.070312 948.808594 222.546875 948.808594 L 234.570312 948.808594 L 223.214844 962.160156 C 210.746094 977.179688 208.296875 983.859375 211.191406 995.871094 C 214.976562 1010.558594 216.089844 1022.25 214.308594 1022.25 C 213.195312 1022.25 207.628906 1016.910156 202.0625 1010.558594 C 196.496094 1004.21875 190.929688 998.878906 189.816406 998.878906 C 188.703125 998.878906 183.136719 1004.21875 177.347656 1010.898438 C 171.78125 1017.910156 166.4375 1022.578125 165.769531 1021.578125 C 165.101562 1020.578125 165.769531 1012.898438 167.328125 1004.21875 C 170.667969 983.519531 168.886719 975.839844 157.085938 962.160156 L 147.066406 950.480469 L 161.761719 948.140625 C 170 946.800781 177.347656 944.800781 178.238281 943.128906 C 179.128906 941.800781 181.578125 932.449219 183.804688 922.769531 C 185.808594 912.75 188.703125 905.738281 190.039062 906.410156 C 191.597656 907.078125 194.269531 915.089844 196.273438 924.101562 Z M 386.421875 922.769531 C 388.648438 932.449219 391.097656 941.800781 391.988281 943.128906 C 392.878906 944.800781 400.226562 946.800781 408.464844 948.140625 L 423.160156 950.480469 L 413.140625 962.160156 C 401.339844 975.839844 399.558594 983.519531 402.898438 1004.21875 C 404.457031 1012.898438 405.125 1020.578125 404.457031 1021.578125 C 403.789062 1022.578125 398.445312 1017.910156 392.878906 1010.898438 C 387.089844 1004.21875 381.523438 998.878906 380.410156 998.878906 C 379.296875 998.878906 373.730469 1004.21875 368.164062 1010.558594 C 362.597656 1016.910156 357.03125 1022.25 355.917969 1022.25 C 354.136719 1022.25 355.25 1010.558594 359.035156 995.871094 C 361.929688 983.859375 359.480469 977.179688 347.011719 962.160156 L 335.65625 948.808594 L 347.679688 948.808594 C 363.933594 948.808594 369.722656 943.460938 373.0625 926.769531 C 378.40625 899.730469 381.300781 898.730469 386.421875 922.769531 Z M 576.792969 924.101562 C 581.246094 943.460938 586.589844 948.808594 602.398438 948.808594 L 613.53125 948.808594 L 601.507812 964.828125 L 589.261719 981.191406 L 592.378906 999.878906 C 593.9375 1010.558594 594.828125 1019.910156 593.9375 1020.910156 C 593.269531 1021.910156 587.925781 1017.570312 582.136719 1010.898438 C 576.347656 1004.21875 571.003906 998.878906 570.113281 998.878906 C 569.222656 998.878906 563.878906 1004.21875 558.089844 1010.898438 C 552.300781 1017.570312 546.957031 1021.910156 546.289062 1020.910156 C 545.398438 1019.910156 546.289062 1010.558594 547.847656 999.878906 L 550.964844 981.191406 L 538.71875 964.828125 L 526.695312 948.808594 L 537.828125 948.808594 C 552.746094 948.808594 558.980469 943.128906 562.765625 927.109375 C 564.324219 919.761719 566.105469 911.75 566.773438 909.410156 C 568.777344 901.070312 573.230469 907.410156 576.792969 924.101562 Z M 766.273438 924.101562 C 770.726562 943.800781 776.070312 948.808594 792.546875 948.808594 L 804.570312 948.808594 L 793.214844 962.160156 C 780.746094 977.179688 778.296875 983.859375 781.191406 995.871094 C 784.976562 1010.558594 786.089844 1022.25 784.308594 1022.25 C 783.195312 1022.25 777.628906 1016.910156 772.0625 1010.558594 C 766.496094 1004.21875 760.929688 998.878906 759.816406 998.878906 C 758.703125 998.878906 753.136719 1004.21875 747.347656 1010.898438 C 741.78125 1017.910156 736.4375 1022.578125 735.769531 1021.578125 C 735.101562 1020.578125 735.769531 1012.898438 737.328125 1004.21875 C 740.667969 983.519531 738.886719 975.839844 727.085938 962.160156 L 717.066406 950.480469 L 731.761719 948.140625 C 740 946.800781 747.347656 944.800781 748.238281 943.128906 C 749.128906 941.800781 751.578125 932.449219 753.804688 922.769531 C 755.808594 912.75 758.703125 905.738281 760.039062 906.410156 C 761.597656 907.078125 764.269531 915.089844 766.273438 924.101562 Z M 956.421875 922.769531 C 958.648438 932.449219 961.097656 941.800781 961.988281 943.128906 C 962.878906 944.800781 970.226562 946.800781 978.464844 948.140625 L 993.160156 950.480469 L 983.140625 962.160156 C 971.339844 975.839844 969.558594 983.519531 972.898438 1004.21875 C 974.457031 1012.898438 975.125 1020.578125 974.457031 1021.578125 C 973.789062 1022.578125 968.445312 1017.910156 962.878906 1010.898438 C 957.089844 1004.21875 951.523438 998.878906 950.410156 998.878906 C 949.296875 998.878906 943.730469 1004.21875 938.164062 1010.558594 C 932.597656 1016.910156 927.03125 1022.25 925.917969 1022.25 C 924.136719 1022.25 925.25 1010.558594 929.035156 995.871094 C 931.929688 983.859375 929.480469 977.179688 917.011719 962.160156 L 905.65625 948.808594 L 917.679688 948.808594 C 933.933594 948.808594 939.722656 943.460938 943.0625 926.769531 C 948.40625 899.730469 951.300781 898.730469 956.421875 922.769531 Z M 101.644531 1047.949219 C 103.648438 1063.640625 109.882812 1068.980469 125.914062 1068.980469 L 139.273438 1068.980469 L 127.027344 1085.339844 L 114.78125 1101.359375 L 117.675781 1120.730469 C 119.011719 1131.410156 119.902344 1141.089844 119.234375 1141.761719 C 118.566406 1142.761719 113.890625 1139.089844 108.546875 1133.410156 C 103.425781 1128.070312 98.082031 1122.390625 96.746094 1121.390625 C 95.410156 1120.058594 89.621094 1124.398438 84.054688 1130.738281 C 73.367188 1143.089844 67.800781 1145.769531 69.804688 1137.75 C 70.472656 1135.078125 72.253906 1126.730469 73.589844 1119.390625 C 76.484375 1103.371094 74.925781 1098.691406 61.121094 1082.339844 L 51.324219 1070.648438 L 66.242188 1068.980469 C 84.054688 1066.980469 86.058594 1065.640625 87.617188 1053.289062 C 88.285156 1047.949219 90.066406 1039.269531 91.402344 1033.929688 C 93.851562 1024.25 94.074219 1024.25 97.191406 1030.261719 C 98.75 1033.929688 100.976562 1041.941406 101.644531 1047.949219 Z M 290.679688 1043.941406 C 292.683594 1054.300781 296.246094 1063.640625 298.472656 1065.640625 C 300.699219 1067.648438 308.714844 1068.980469 316.285156 1068.980469 L 330.089844 1068.980469 L 317.621094 1084.339844 C 304.261719 1100.691406 303.816406 1101.699219 307.601562 1124.398438 C 308.9375 1132.75 309.605469 1140.421875 308.714844 1141.429688 C 308.046875 1142.429688 302.703125 1138.089844 297.136719 1131.070312 C 291.347656 1124.398438 286.003906 1119.058594 285.113281 1119.058594 C 284.222656 1119.058594 278.878906 1124.398438 273.089844 1131.070312 C 267.523438 1138.089844 262.179688 1142.429688 261.511719 1141.429688 C 260.621094 1140.421875 261.289062 1132.75 262.625 1124.398438 C 266.410156 1101.699219 265.964844 1100.691406 252.605469 1084.339844 L 240.136719 1068.980469 L 253.941406 1068.980469 C 261.511719 1068.980469 269.527344 1067.648438 271.753906 1065.640625 C 273.980469 1063.640625 277.542969 1054.300781 279.546875 1043.941406 C 281.328125 1033.929688 284 1025.589844 285.113281 1025.589844 C 286.226562 1025.589844 288.898438 1033.929688 290.679688 1043.941406 Z M 481.050781 1044.609375 C 482.609375 1053.628906 484.835938 1061.96875 485.949219 1063.980469 C 487.0625 1065.640625 494.855469 1067.980469 503.539062 1068.980469 L 518.902344 1070.648438 L 509.105469 1082.339844 C 495.300781 1098.691406 493.742188 1103.371094 496.636719 1119.390625 C 497.972656 1126.730469 499.753906 1135.078125 500.421875 1137.75 C 502.425781 1145.769531 496.859375 1143.089844 486.171875 1130.738281 C 480.605469 1124.398438 474.816406 1120.058594 473.480469 1121.390625 C 472.144531 1122.390625 466.800781 1128.070312 461.679688 1133.410156 C 456.335938 1139.089844 451.660156 1142.761719 450.992188 1141.761719 C 450.324219 1141.089844 451.214844 1131.410156 452.550781 1120.730469 L 455.445312 1101.359375 L 443.199219 1085.339844 L 430.953125 1068.980469 L 444.3125 1068.980469 C 458.339844 1068.980469 467.691406 1062.980469 467.691406 1053.628906 C 467.691406 1045.28125 474.148438 1024.921875 476.152344 1026.921875 C 477.265625 1027.921875 479.492188 1035.929688 481.050781 1044.609375 Z M 671.644531 1047.949219 C 673.648438 1063.640625 679.882812 1068.980469 695.914062 1068.980469 L 709.273438 1068.980469 L 697.027344 1085.339844 L 684.78125 1101.359375 L 687.675781 1120.730469 C 689.011719 1131.410156 689.902344 1141.089844 689.234375 1141.761719 C 688.566406 1142.761719 683.890625 1139.089844 678.546875 1133.410156 C 673.425781 1128.070312 668.082031 1122.390625 666.746094 1121.390625 C 665.410156 1120.058594 659.621094 1124.398438 654.054688 1130.738281 C 643.367188 1143.089844 637.800781 1145.769531 639.804688 1137.75 C 640.472656 1135.078125 642.253906 1126.730469 643.589844 1119.390625 C 646.484375 1103.371094 644.925781 1098.691406 631.121094 1082.339844 L 621.324219 1070.648438 L 636.242188 1068.980469 C 654.054688 1066.980469 656.058594 1065.640625 657.617188 1053.289062 C 658.285156 1047.949219 660.066406 1039.269531 661.402344 1033.929688 C 663.851562 1024.25 664.074219 1024.25 667.191406 1030.261719 C 668.75 1033.929688 670.976562 1041.941406 671.644531 1047.949219 Z M 860.679688 1043.941406 C 862.683594 1054.300781 866.246094 1063.640625 868.472656 1065.640625 C 870.699219 1067.648438 878.714844 1068.980469 886.285156 1068.980469 L 900.089844 1068.980469 L 887.621094 1084.339844 C 874.261719 1100.691406 873.816406 1101.699219 877.601562 1124.398438 C 878.9375 1132.75 879.605469 1140.421875 878.714844 1141.429688 C 878.046875 1142.429688 872.703125 1138.089844 867.136719 1131.070312 C 861.347656 1124.398438 856.003906 1119.058594 855.113281 1119.058594 C 854.222656 1119.058594 848.878906 1124.398438 843.089844 1131.070312 C 837.523438 1138.089844 832.179688 1142.429688 831.511719 1141.429688 C 830.621094 1140.421875 831.289062 1132.75 832.625 1124.398438 C 836.410156 1101.699219 835.964844 1100.691406 822.605469 1084.339844 L 810.136719 1068.980469 L 823.941406 1068.980469 C 831.511719 1068.980469 839.527344 1067.648438 841.753906 1065.640625 C 843.980469 1063.640625 847.542969 1054.300781 849.546875 1043.941406 C 851.328125 1033.929688 854 1025.589844 855.113281 1025.589844 C 856.226562 1025.589844 858.898438 1033.929688 860.679688 1043.941406 Z M 1051.050781 1044.609375 C 1052.609375 1053.628906 1054.839844 1061.96875 1055.949219 1063.980469 C 1057.058594 1065.640625 1064.859375 1067.980469 1073.539062 1068.980469 L 1088.898438 1070.648438 L 1079.109375 1082.339844 C 1065.300781 1098.691406 1063.738281 1103.371094 1066.640625 1119.390625 C 1067.96875 1126.730469 1069.75 1135.078125 1070.421875 1137.75 C 1072.429688 1145.769531 1066.859375 1143.089844 1056.171875 1130.738281 C 1050.609375 1124.398438 1044.820312 1120.058594 1043.480469 1121.390625 C 1042.140625 1122.390625 1036.800781 1128.070312 1031.679688 1133.410156 C 1026.339844 1139.089844 1021.660156 1142.761719 1020.988281 1141.761719 C 1020.320312 1141.089844 1021.210938 1131.410156 1022.550781 1120.730469 L 1025.441406 1101.359375 L 1013.199219 1085.339844 L 1000.949219 1068.980469 L 1014.308594 1068.980469 C 1028.339844 1068.980469 1037.691406 1062.980469 1037.691406 1053.628906 C 1037.691406 1045.28125 1044.148438 1024.921875 1046.148438 1026.921875 C 1047.269531 1027.921875 1049.488281 1035.929688 1051.050781 1044.609375 Z M 1051.050781 1044.609375 "/>
<path fill-rule="nonzero" fill="rgb(0%, 0%, 0%)" fill-opacity="1" d="M 0.113281 1471.246094 L 0.113281 1553.035156 L 2850.109375 1553.035156 L 2850.109375 1389.457031 L 0.113281 1389.457031 Z M 0.113281 1471.246094 "/>
<path fill-rule="nonzero" fill="rgb(0%, 0%, 0%)" fill-opacity="1" d="M 0.113281 1815.089844 L 0.113281 1900.214844 L 2850.109375 1900.214844 L 2850.109375 1729.960938 L 0.113281 1729.960938 Z M 0.113281 1815.089844 "/>
<path fill-rule="nonzero" fill="rgb(0%, 0%, 0%)" fill-opacity="1" d="M 0.113281 2165.609375 L 0.113281 2250.734375 L 2850.109375 2250.734375 L 2850.109375 2080.480469 L 0.113281 2080.480469 Z M 0.113281 2165.609375 "/>
</svg>
