<?xml version="1.0" encoding="UTF-8" standalone="no"?>
<!-- Uploaded to: SVG Repo, www.svgrepo.com, Generator: SVG Repo Mixer Tools -->

<svg
   fill="#000000"
   width="800px"
   height="800px"
   viewBox="-1.5 0 24 24"
   version="1.1"
   id="svg1"
   sodipodi:docname="nginx-svgrepo-com.svg"
   inkscape:version="1.4 (e7c3feb100, 2024-10-09)"
   xmlns:inkscape="http://www.inkscape.org/namespaces/inkscape"
   xmlns:sodipodi="http://sodipodi.sourceforge.net/DTD/sodipodi-0.dtd"
   xmlns="http://www.w3.org/2000/svg"
   xmlns:svg="http://www.w3.org/2000/svg">
  <defs
     id="defs1" />
  <sodipodi:namedview
     id="namedview1"
     pagecolor="#ffffff"
     bordercolor="#000000"
     borderopacity="0.25"
     inkscape:showpageshadow="2"
     inkscape:pageopacity="0.0"
     inkscape:pagecheckerboard="0"
     inkscape:deskcolor="#d1d1d1"
     inkscape:zoom="1.0175"
     inkscape:cx="400"
     inkscape:cy="400"
     inkscape:window-width="1920"
     inkscape:window-height="1022"
     inkscape:window-x="0"
     inkscape:window-y="0"
     inkscape:window-maximized="1"
     inkscape:current-layer="svg1" />
  <path
     d="m10.395 0-10.395 6v12l10.395 6 10.4-6v-12zm6 16.59c-.059.728-.664 1.296-1.402 1.296-.045 0-.089-.002-.133-.006h.006c-.008 0-.017 0-.026 0-.707 0-1.341-.313-1.771-.807l-.002-.003-6-7.141v6.66.014c0 .703-.568 1.273-1.271 1.276h-.08c-.71-.006-1.284-.58-1.29-1.289v-9.18c.049-.725.65-1.295 1.383-1.295.041 0 .082.002.122.005h-.005.039c.712 0 1.352.312 1.789.808l.002.003 5.97 7.141v-6.661c.006-.71.58-1.284 1.289-1.29h.076c.71.006 1.284.58 1.29 1.289v9.181z"
     id="path1"
     style="fill:#11111b;fill-opacity:1" />
</svg>
