<?xml version="1.0" encoding="UTF-8" standalone="no"?>
<!-- Created with Inkscape (http://www.inkscape.org/) -->

<svg
   width="144.89287mm"
   height="105.50333mm"
   viewBox="0 0 144.89287 105.50333"
   version="1.1"
   id="svg1"
   xml:space="preserve"
   sodipodi:docname="bitmap_b.svg"
   inkscape:version="1.4 (e7c3feb100, 2024-10-09)"
   xmlns:inkscape="http://www.inkscape.org/namespaces/inkscape"
   xmlns:sodipodi="http://sodipodi.sourceforge.net/DTD/sodipodi-0.dtd"
   xmlns="http://www.w3.org/2000/svg"
   xmlns:svg="http://www.w3.org/2000/svg"><sodipodi:namedview
     id="namedview1"
     pagecolor="#ffffff"
     bordercolor="#000000"
     borderopacity="0.25"
     inkscape:showpageshadow="2"
     inkscape:pageopacity="0.0"
     inkscape:pagecheckerboard="0"
     inkscape:deskcolor="#d1d1d1"
     inkscape:document-units="mm"
     inkscape:zoom="1.3214379"
     inkscape:cx="273.94401"
     inkscape:cy="206.21476"
     inkscape:window-width="1536"
     inkscape:window-height="836"
     inkscape:window-x="0"
     inkscape:window-y="0"
     inkscape:window-maximized="1"
     inkscape:current-layer="svg1" /><defs
     id="defs1" /><g
     id="layer1"
     transform="translate(-23.264915,-306.72039)"><g
       id="g1"
       transform="translate(-16.249939,224.2018)"
       style="display:inline"><path
         style="display:inline;fill:#11111b;fill-opacity:1.0"
         d="m 91.306543,174.32081 c -0.654843,-0.0935 -1.321612,-0.25216 -1.481709,-0.35264 -0.438103,-0.27496 -1.454799,-3.71443 -1.936294,-6.55046 -0.234708,-1.38245 -0.516052,-2.65404 -0.625207,-2.82576 -0.109155,-0.17171 -0.881197,-0.39111 -1.715648,-0.48756 -3.115994,-0.36013 -6.633871,-0.96663 -9.518244,-1.64099 -1.635688,-0.38242 -3.046301,-0.62298 -3.134695,-0.53459 -0.339362,0.33936 1.5385,4.62044 2.900906,6.61338 0.836885,1.2242 0.648726,1.23688 -0.949757,0.064 -1.693089,-1.24227 -3.191231,-3.2046 -4.481187,-5.86965 -1.067138,-2.2047 -1.095086,-2.23477 -2.834111,-3.0495 -3.362086,-1.57513 -5.41623,-3.24476 -6.722802,-5.46436 l -0.46854,-0.79596 1.49176,0.89829 c 1.681818,1.01274 5.137878,2.50933 5.794757,2.50933 0.287964,0 0.387462,-0.15516 0.296915,-0.46302 -0.684374,-2.32686 -1.8395,-8.46918 -2.40916,-12.81057 l -0.162059,-1.23505 -1.905275,-0.30892 c -2.477588,-0.40172 -5.699938,-1.1869 -6.859715,-1.67149 -0.818157,-0.34185 -0.93729,-0.52112 -1.090865,-1.64157 -0.09482,-0.6918 -0.172402,-1.58585 -0.172402,-1.98677 0,-0.70736 0.0294,-0.72206 0.992187,-0.49612 1.30819,0.30701 6.759746,1.03435 7.752613,1.03435 h 0.780199 v -8.58649 -8.5865 l -1.389062,0.14435 c -1.804789,0.18755 -6.164138,0.81365 -7.318068,1.05104 l -0.901923,0.18556 0.171536,-1.64118 c 0.09435,-0.90265 0.294664,-1.87124 0.445152,-2.15243 0.334104,-0.62428 2.844397,-1.42115 6.604248,-2.09647 1.517124,-0.27249 2.820502,-0.64686 2.946983,-0.84646 0.12473,-0.19683 0.228628,-0.71507 0.230885,-1.15163 0.0064,-1.2356 0.969037,-6.83875 1.722047,-10.02327 0.37449,-1.58374 0.620034,-2.94038 0.545654,-3.01476 -0.300579,-0.30058 -5.86075,2.18147 -6.827764,3.04789 -0.711797,0.63776 -0.549599,0.001 0.29276,-1.14881 1.375034,-1.87736 3.107322,-3.192274 6.030561,-4.57755 l 1.89155,-0.896376 1.201302,-2.419903 c 0.660717,-1.330947 1.697644,-2.983777 2.304284,-3.672956 1.165175,-1.323709 3.426939,-3.033294 3.426939,-2.590299 0,0.143924 -0.122448,0.337356 -0.272105,0.42985 -0.64168,0.396579 -3.41539,6.582509 -3.095133,6.902766 0.107893,0.107893 2.040476,-0.317412 5.483904,-1.206847 0.509323,-0.131557 2.533386,-0.444249 4.497917,-0.69487 4.676475,-0.596593 4.7625,-0.631422 4.7625,-1.928215 0,-0.99539 1.235849,-6.287382 1.81057,-7.75299 0.242506,-0.618418 0.469113,-0.728607 1.812976,-0.881569 0.844706,-0.09615 1.762199,-0.23833 2.038873,-0.315963 0.402218,-0.11286 0.465537,-0.04341 0.315908,0.346521 -0.475869,1.240095 -1.37016,10.007139 -1.751258,17.168181 -0.162631,3.05594 -0.363001,12.83001 -0.445267,21.72017 l -0.149574,16.16391 6.05524,0.18068 c 7.189615,0.21454 19.146085,0.21086 20.526895,-0.006 l 0.97791,-0.1538 0.0821,-3.4742 c 0.12044,-5.09894 -0.2566,-26.83918 -0.59024,-34.03357 -0.36454,-7.860638 -1.17206,-15.827165 -1.75946,-17.357907 -0.15781,-0.411254 0.006,-0.438289 1.76353,-0.290948 1.06562,0.08934 2.04914,0.274072 2.18558,0.410519 0.35591,0.355908 1.41854,4.325648 1.78142,6.655001 0.17003,1.091407 0.36654,2.188599 0.43669,2.438205 0.13772,0.489995 0.0798,0.477081 5.12481,1.143097 1.81901,0.240137 4.66912,0.78021 6.33357,1.200161 1.66446,0.419952 3.08599,0.703842 3.15896,0.630867 0.31875,-0.318741 -1.56071,-4.641881 -2.91242,-6.699179 l -0.58474,-0.889975 0.89717,0.463948 c 1.61233,0.833769 3.61619,3.218415 4.97308,5.918097 l 1.27746,2.541654 2.59786,1.308619 c 2.73336,1.376874 4.82229,3.141121 5.88736,4.972291 l 0.57538,0.98924 -1.28983,-0.88724 c -1.3148,-0.90443 -5.57002,-2.81103 -6.27375,-2.81103 -0.25627,0 -0.33585,0.16511 -0.2341,0.4857 0.49893,1.572 1.54433,6.79471 2.02119,10.09763 0.30463,2.11005 0.57403,3.85743 0.59866,3.88305 0.0246,0.0256 1.53193,0.34891 3.34957,0.7184 1.81763,0.36948 3.95355,0.89359 4.74649,1.16468 1.57706,0.53917 1.64957,0.65803 1.94585,3.18989 0.16167,1.3815 0.15091,1.41171 -0.44888,1.26117 -0.83354,-0.20921 -5.77006,-0.89036 -7.57735,-1.04554 l -1.46369,-0.12568 0.005,8.59056 0.005,8.59057 1.98755,-0.17943 c 2.27852,-0.20569 6.18866,-0.79288 7.11094,-1.06785 0.61667,-0.18386 0.62281,-0.16712 0.43613,1.19016 -0.37608,2.73447 -0.38107,2.74159 -2.39823,3.42199 -1.0111,0.34106 -3.13415,0.84308 -4.71787,1.11562 -1.58373,0.27253 -2.90594,0.52927 -2.93824,0.57052 -0.0323,0.0413 -0.20415,1.20611 -0.38188,2.58856 -0.36799,2.86246 -1.74983,9.96777 -2.13611,10.98376 -0.19168,0.50418 -0.16839,0.7109 0.0914,0.81057 0.44285,0.16994 4.19157,-1.26452 5.44352,-2.08299 0.52183,-0.34115 1.15989,-0.69855 1.41792,-0.79423 0.64788,-0.24023 0.29542,0.38124 -1.14213,2.01382 -1.28296,1.45703 -3.59919,3.04241 -5.6771,3.88577 -1.39639,0.56675 -1.45259,0.63181 -2.62165,3.03495 -1.26129,2.59274 -1.07504,2.42003 -3.76887,3.49484 -0.16785,0.067 0.0613,-0.83816 0.50913,-2.0114 0.44787,-1.17324 0.73287,-2.2146 0.63333,-2.31414 -0.0995,-0.0995 -1.51927,0.13363 -3.15496,0.51817 -2.7703,0.65127 -6.17431,1.22109 -9.77838,1.63687 -1.49851,0.17287 -1.51415,0.18367 -1.66366,1.14874 -0.34171,2.2056 -0.74409,4.22631 -1.09363,5.49201 l -0.37082,1.34278 -2.17749,0.67292 c -1.19762,0.37011 -2.19597,0.65882 -2.21855,0.64159 -0.0226,-0.0172 0.114,-0.9243 0.3035,-2.0157 0.18951,-1.09141 0.42916,-3.01095 0.53255,-4.26564 l 0.188,-2.28126 -12.66233,0.0539 -12.662332,0.0539 0.08686,1.69819 c 0.09317,1.82154 0.705375,6.3418 0.991474,7.3206 0.192748,0.65941 0.03684,0.68378 -2.268958,0.35466 z m 23.723427,-13.42571 2.95364,-0.1702 0.17261,-1.74683 c 0.29993,-3.03546 0.59974,-14.43518 0.3869,-14.7114 -0.13245,-0.17189 -4.89288,-0.23974 -13.58793,-0.19366 l -13.384063,0.0709 0.03016,4.82386 c 0.01659,2.65313 0.105887,6.37168 0.198438,8.26345 l 0.168274,3.43958 1.5875,0.15396 c 2.275162,0.22065 17.973551,0.27205 21.474471,0.0703 z M 86.7152,158.48802 c -0.09347,-0.98226 -0.293762,-3.81 -0.445091,-6.28385 -0.151329,-2.47386 -0.339189,-5.3487 -0.417467,-6.38854 l -0.142322,-1.89061 -2.956576,-0.17123 c -4.624715,-0.26782 -6.950567,-0.42322 -10.22,-0.68285 -1.66655,-0.13234 -3.070085,-0.20062 -3.118966,-0.15174 -0.276531,0.27653 1.362932,11.58228 2.061332,14.21496 0.294948,1.11184 0.38236,1.14363 5.807517,2.1124 3.562633,0.63618 5.915154,0.91988 8.174197,0.98577 l 1.427323,0.0416 z m 43.74968,1.10164 c 3.91265,-0.56745 7.70507,-1.35869 8.01955,-1.67317 0.49287,-0.49287 2.61949,-14.60835 2.25569,-14.97215 -0.0627,-0.0627 -1.47756,-0.003 -3.14411,0.13275 -4.38572,0.35718 -6.06287,0.47301 -9.84311,0.67982 -3.62048,0.19806 -3.50108,0.14132 -3.44411,1.63671 0.0245,0.64349 -0.69023,11.32857 -0.87868,13.13584 l -0.19055,1.82738 2.2236,-0.18213 c 1.22297,-0.10017 3.47375,-0.36345 5.00172,-0.58505 z m -44.97917,-30.7855 c 0,-5.23017 -0.0893,-9.55895 -0.198437,-9.61953 -0.303827,-0.16864 -13.810479,0.32363 -15.154891,0.55234 l -1.18313,0.20127 -0.193322,3.56525 c -0.106328,1.96089 -0.121099,5.9117 -0.03283,8.77957 l 0.160496,5.2143 1.091159,0.14741 c 1.229005,0.16603 9.667063,0.5682 13.195847,0.62893 l 2.315104,0.0398 z m 53.04896,9.01308 2.64583,-0.16516 v -8.85361 -8.85362 l -0.92604,-0.20007 c -1.22913,-0.26555 -15.15945,-0.72203 -15.40555,-0.50482 -0.13616,0.12018 -0.31101,15.74167 -0.21131,18.87965 0.006,0.20289 8.90412,0.009 13.89707,-0.30237 z M 75.696127,114.10417 c 2.546614,-0.21223 5.701771,-0.39017 7.011458,-0.39542 1.309688,-0.005 2.517164,-0.097 2.683282,-0.20395 0.171661,-0.11048 0.377788,-1.33644 0.477538,-2.84022 0.09653,-1.4552 0.35828,-5.06598 0.58167,-8.02393 0.22339,-2.957961 0.334494,-5.449777 0.246898,-5.537373 -0.299393,-0.299393 -8.982762,0.898564 -13.330973,1.83914 -0.772247,0.167047 -1.507231,0.496451 -1.633298,0.732008 -0.524498,0.980035 -2.367397,12.184945 -2.384174,14.495885 -0.003,0.41899 0.601797,0.41269 6.347599,-0.0661 z m 64.975943,-1.52136 c -0.24332,-2.59412 -1.10777,-8.29467 -1.67443,-11.04196 l -0.46297,-2.244558 -1.45521,-0.327786 c -1.99219,-0.448742 -9.48741,-1.599211 -11.8712,-1.822155 l -1.94932,-0.182311 0.16902,2.220064 c 0.5191,6.818326 0.67711,9.342646 0.72351,11.558226 0.0283,1.35245 0.16718,2.53051 0.30859,2.6179 0.30243,0.18691 0.94426,0.23792 5.87252,0.46667 4.51201,0.20943 7.09965,0.40956 7.25087,0.56077 0.0624,0.0624 0.82329,0.11337 1.69096,0.11337 h 1.57759 z"
         id="path4" /><path
         style="fill:#11111b;fill-opacity:1"
         d="m 83.3053,187.67872 c -1.435752,-0.51242 -2.249862,-1.10894 -3.052987,-2.23698 l -0.709775,-0.99694 -7.281018,0.0144 c -7.711098,0.0152 -10.30624,-0.20353 -15.626492,-1.31728 -10.468235,-2.19144 -16.385501,-6.54759 -16.855998,-12.40899 -0.335979,-4.18559 1.694856,-9.06622 6.098151,-14.65545 2.496568,-3.16896 7.277744,-7.90702 9.313738,-9.22974 1.018646,-0.66178 2.030677,-1.33355 2.248958,-1.49282 0.218282,-0.15927 -0.43745,0.60228 -1.45718,1.69234 -8.626391,9.2213 -11.347858,16.01337 -8.629095,21.53596 2.745337,5.57657 11.709835,9.40579 25.129413,10.73411 1.507007,0.14917 3.600315,0.27122 4.651794,0.27122 h 1.911782 l 0.825431,-1.27386 c 1.188814,-1.83465 3.065288,-2.82168 5.349105,-2.81365 2.452289,0.009 4.172793,1.00952 5.432859,3.16057 0.260537,0.44476 0.435914,0.44559 3.704167,0.0176 27.545367,-3.60683 59.919377,-17.91214 74.899127,-33.09615 4.78842,-4.85371 7.35338,-9.30936 7.69594,-13.36878 0.45703,-5.41587 -3.71223,-9.84508 -11.96022,-12.70592 -2.55579,-0.88649 -2.05759,-0.96005 1.54594,-0.22828 4.57193,0.92842 7.33337,1.8035 10.41052,3.29902 3.51028,1.70603 5.5363,3.49259 6.60301,5.82258 0.61241,1.3377 0.67323,1.74458 0.57328,3.83519 -0.10041,2.10024 -0.22417,2.56306 -1.21355,4.53842 -1.48931,2.9735 -3.18706,5.14536 -6.59137,8.43208 -11.12214,10.73794 -31.6664,21.83575 -55.38095,29.91627 -8.28374,2.8226 -18.42432,5.55162 -25.403422,6.83653 -1.671609,0.30775 -3.290248,0.61243 -3.596975,0.67705 -0.373241,0.0786 -0.713098,0.52443 -1.027591,1.34792 -0.657895,1.72267 -2.172656,3.1539 -3.872124,3.65858 -1.66563,0.49464 -2.426568,0.50177 -3.734468,0.035 z m 78.85997,-69.12509 c 0.19099,-0.0764 0.4192,-0.067 0.50711,0.0209 0.0879,0.0879 -0.0684,0.15046 -0.34726,0.13897 -0.30823,-0.0127 -0.37092,-0.0754 -0.15985,-0.15986 z"
         id="path1" /></g></g></svg>
