<?xml version="1.0" encoding="UTF-8" standalone="no"?>
<svg
   id="flag-icons-us"
   viewBox="0 0 640 480"
   version="1.1"
   sodipodi:docname="us_black_and_white.svg"
   inkscape:version="1.4 (e7c3feb100, 2024-10-09)"
   xmlns:inkscape="http://www.inkscape.org/namespaces/inkscape"
   xmlns:sodipodi="http://sodipodi.sourceforge.net/DTD/sodipodi-0.dtd"
   xmlns="http://www.w3.org/2000/svg"
   xmlns:svg="http://www.w3.org/2000/svg">
  <defs
     id="defs5">
    <linearGradient
       id="swatch7"
       inkscape:swatch="solid">
      <stop
         style="stop-color:#52b0ba;stop-opacity:1;"
         offset="0"
         id="stop8" />
    </linearGradient>
  </defs>
  <sodipodi:namedview
     id="namedview5"
     pagecolor="#505050"
     bordercolor="#eeeeee"
     borderopacity="1"
     inkscape:showpageshadow="0"
     inkscape:pageopacity="0"
     inkscape:pagecheckerboard="0"
     inkscape:deskcolor="#505050"
     inkscape:zoom="0.84270835"
     inkscape:cx="219.53028"
     inkscape:cy="217.7503"
     inkscape:window-width="1536"
     inkscape:window-height="836"
     inkscape:window-x="0"
     inkscape:window-y="0"
     inkscape:window-maximized="1"
     inkscape:current-layer="flag-icons-us" />
  <path
     fill="#bd3d44"
     d="M -45.686031,133.49814 H 594.31397 v 480 H -45.686031"
     id="path1"
     style="display:inline;fill:#11111b;fill-opacity:1" />
  <path
     stroke="#ffffff"
     stroke-width="37"
     d="M -45.686031,188.79814 H 477.6267 594.31397 m -640.000001,73.7 h 555.352291 84.64771 m -640.000001,74 h 543.485781 96.51422 m -640.000001,74 H 594.31397 m -640.000001,74 H 594.31397 m -640.000001,74 H 594.31397"
     id="path2"
     sodipodi:nodetypes="ccccccccccccccc"
     style="display:inline;fill:#52b0ba;fill-opacity:1;fill-rule:nonzero;stroke:#89b4fa;stroke-opacity:1" />
  <path
     fill="#192f5d"
     d="M -45.686031,133.49814 H 319.11397 v 258.5 H -45.686031"
     id="path3"
     style="fill:#11111b;fill-opacity:1" />
  <marker
     id="us-a"
     markerHeight="30"
     markerWidth="30">
    <path
       fill="#fff"
       d="m14 0 9 27L0 10h28L5 27z"
       id="path4"
       style="fill:#89b4fa;fill-opacity:1" />
  </marker>
  <path
     fill="none"
     marker-mid="url(#us-a)"
     d="m -45.686031,133.49814 16,11 h 61 61 61.000001 61 60 l -273.0000012,26 h 61.0000002 61.000001 60 61 l -274.000001,26 h 61 61 61.000001 61 60 l -273.0000012,26 h 61.0000002 61.000001 60 61 l -274.000001,26 h 61 61 61.000001 61 60 l -273.0000012,26 h 61.0000002 61.000001 60 61 l -274.000001,25 h 61 61 61.000001 61 60 l -273.0000012,26 h 61.0000002 61.000001 60 61 l -274.000001,26 h 61 61 61.000001 61 60 z"
     id="path5" />
</svg>
